Yatra_0.ufo
<glyph name="parenleft" format="1">
  <advance width="524"/>
  <unicode hex="0028"/>
  <outline>
    <contour>
      <point x="389" y="814" type="line"/>
      <point x="189" y="698"/>
      <point x="-30" y="317"/>
      <point x="99" y="147" type="curve" smooth="yes"/>
      <point x="165" y="60"/>
      <point x="354" y="-48"/>
      <point x="420" y="-94" type="curve"/>
      <point x="452" y="-56" type="line"/>
      <point x="384" y="-11"/>
      <point x="315" y="38"/>
      <point x="289" y="60" type="curve" smooth="yes"/>
      <point x="37" y="273"/>
      <point x="318" y="599"/>
      <point x="474" y="721" type="curve"/>
    </contour>
  </outline>
</glyph>
<glyph name="six" format="1">
  <advance width="547"/>
  <unicode hex="0036"/>
  <outline>
    <contour>
      <point x="342" y="672" type="line"/>
      <point x="67" y="536"/>
      <point x="-3" y="206"/>
      <point x="71" y="127" type="curve" smooth="yes"/>
      <point x="122" y="72"/>
      <point x="198" y="18"/>
      <point x="273" y="-18" type="curve" smooth="yes"/>
      <point x="373" y="-66"/>
      <point x="576" y="141"/>
      <point x="483" y="262" type="curve" smooth="yes"/>
      <point x="460" y="292"/>
      <point x="411" y="329"/>
      <point x="346" y="379" type="curve" smooth="yes"/>
      <point x="327" y="393"/>
      <point x="264" y="386"/>
      <point x="224" y="379" type="curve"/>
      <point x="268" y="460"/>
      <point x="341" y="538"/>
      <point x="448" y="583" type="curve"/>
    </contour>
    <contour>
      <point x="205" y="89" type="curve" smooth="yes"/>
      <point x="169" y="113"/>
      <point x="159" y="186"/>
      <point x="181" y="271" type="curve"/>
      <point x="594" y="401"/>
      <point x="331" y="2"/>
    </contour>
  </outline>
</glyph>
<glyph name="question" format="1">
  <advance width="475"/>
  <unicode hex="003F"/>
  <outline>
    <contour>
      <point x="239" y="-22" type="curve"/>
      <point x="280" y="-1"/>
      <point x="304" y="27"/>
      <point x="313" y="50" type="curve"/>
      <point x="304" y="68"/>
      <point x="283" y="101"/>
      <point x="238" y="121" type="curve"/>
      <point x="217" y="116"/>
      <point x="166" y="74"/>
      <point x="163" y="51" type="curve"/>
      <point x="180" y="17"/>
      <point x="211" y="-9"/>
    </contour>
    <contour>
      <point x="107" y="543" type="line"/>
      <point x="149" y="587"/>
      <point x="266" y="640"/>
      <point x="317" y="590" type="curve" smooth="yes"/>
      <point x="404" y="505"/>
      <point x="155" y="276"/>
      <point x="144" y="265" type="curve"/>
      <point x="238" y="184" type="line"/>
      <point x="329" y="284"/>
      <point x="467" y="419"/>
      <point x="435" y="509" type="curve" smooth="yes"/>
      <point x="423" y="542"/>
      <point x="327" y="656"/>
      <point x="258" y="698" type="curve" smooth="yes"/>
      <point x="204" y="731"/>
      <point x="72" y="683"/>
      <point x="29" y="627" type="curve"/>
    </contour>
  </outline>
</glyph>
<glyph name="at" format="1">
  <advance width="1054"/>
  <unicode hex="0040"/>
  <outline>
    <contour>
      <point x="438" y="97" type="curve" smooth="yes"/>
      <point x="313" y="184"/>
      <point x="528" y="473"/>
      <point x="647" y="391" type="curve" smooth="yes"/>
      <point x="666" y="378"/>
      <point x="660" y="261"/>
      <point x="644" y="183" type="curve"/>
      <point x="629" y="151"/>
      <point x="500" y="53"/>
    </contour>
    <contour>
      <point x="915" y="483" type="curve" smooth="yes"/>
      <point x="852" y="546"/>
      <point x="785" y="583"/>
      <point x="655" y="668" type="curve" smooth="yes"/>
      <point x="369" y="856"/>
      <point x="-157" y="372"/>
      <point x="163" y="52" type="curve" smooth="yes"/>
      <point x="211" y="4"/>
      <point x="348" y="-110"/>
      <point x="421" y="-166" type="curve" smooth="yes"/>
      <point x="477" y="-209"/>
      <point x="675" y="-234"/>
      <point x="761" y="-120" type="curve"/>
      <point x="649" y="-25" type="line"/>
      <point x="580" y="-98"/>
      <point x="488" y="-98"/>
      <point x="416" y="-59" type="curve" smooth="yes"/>
      <point x="-90" y="214"/>
      <point x="431" y="793"/>
      <point x="759" y="525" type="curve" smooth="yes"/>
      <point x="968" y="354"/>
      <point x="824" y="81"/>
      <point x="755" y="170" type="curve" smooth="yes"/>
      <point x="740" y="189"/>
      <point x="779" y="351"/>
      <point x="754" y="378" type="curve" smooth="yes"/>
      <point x="711" y="423"/>
      <point x="678" y="436"/>
      <point x="632" y="462" type="curve" smooth="yes"/>
      <point x="429" y="577"/>
      <point x="193" y="216"/>
      <point x="329" y="106" type="curve" smooth="yes"/>
      <point x="395" y="53"/>
      <point x="413" y="39"/>
      <point x="459" y="11" type="curve" smooth="yes"/>
      <point x="541" y="-39"/>
      <point x="650" y="32"/>
      <point x="700" y="96" type="curve"/>
      <point x="728" y="55"/>
      <point x="747" y="37"/>
      <point x="770" y="20" type="curve" smooth="yes"/>
      <point x="881" y="-64"/>
      <point x="1122" y="276"/>
    </contour>
  </outline>
</glyph>
<glyph name="A" format="1">
  <advance width="657"/>
  <unicode hex="0041"/>
  <outline>
    <contour>
      <point x="403" y="8" type="move" name="ogonek"/>
    </contour>
    <contour>
      <point x="338" y="743" type="move" name="top"/>
    </contour>
    <contour>
      <point x="390" y="625" type="line"/>
      <point x="252" y="666" type="line"/>
      <point x="10" y="0" type="line"/>
      <point x="150" y="-29" type="line"/>
      <point x="222" y="167" type="line"/>
      <point x="458" y="183" type="line"/>
      <point x="528" y="0" type="line"/>
      <point x="657" y="-29" type="line"/>
      <point x="389" y="622" type="line"/>
    </contour>
    <contour>
      <point x="340" y="490" type="line"/>
      <point x="426" y="266" type="line"/>
      <point x="254" y="254" type="line"/>
    </contour>
  </outline>
</glyph>
<glyph name="K" format="1">
  <advance width="680"/>
  <unicode hex="004B"/>
  <outline>
    <contour>
      <point x="211" y="625" type="line"/>
      <point x="73" y="666" type="line"/>
      <point x="73" y="131" type="line"/>
      <point x="70" y="127" type="line"/>
      <point x="73" y="126" type="line"/>
      <point x="73" y="0" type="line"/>
      <point x="213" y="-29" type="line"/>
      <point x="212" y="115" type="line"/>
      <point x="350" y="288" type="line"/>
      <point x="540" y="0" type="line"/>
      <point x="670" y="-29" type="line"/>
      <point x="408" y="361" type="line"/>
      <point x="627" y="637" type="line"/>
      <point x="497" y="666" type="line"/>
      <point x="212" y="306" type="line"/>
    </contour>
  </outline>
</glyph>
<glyph name="O" format="1">
  <advance width="803"/>
  <unicode hex="004F"/>
  <outline>
    <contour>
      <point x="482" y="743" type="move" name="top"/>
    </contour>
    <contour>
      <point x="521" y="572" type="curve" smooth="yes"/>
      <point x="736" y="430"/>
      <point x="520" y="-39"/>
      <point x="284" y="102" type="curve" smooth="yes"/>
      <point x="59" y="236"/>
      <point x="285" y="728"/>
    </contour>
    <contour>
      <point x="677" y="523" type="curve" smooth="yes"/>
      <point x="616" y="582"/>
      <point x="554" y="629"/>
      <point x="454" y="683" type="curve" smooth="yes"/>
      <point x="191" y="825"/>
      <point x="-82" y="346"/>
      <point x="121" y="152" type="curve" smooth="yes"/>
      <point x="213" y="63"/>
      <point x="258" y="44"/>
      <point x="330" y="4" type="curve" smooth="yes"/>
      <point x="619" y="-160"/>
      <point x="887" y="319"/>
    </contour>
  </outline>
</glyph>
<glyph name="dieresis" format="1">
  <advance width="341"/>
  <unicode hex="00A8"/>
  <outline>
    <contour>
      <point x="260" y="552" type="curve"/>
      <point x="296" y="570"/>
      <point x="317" y="594"/>
      <point x="324" y="614" type="curve"/>
      <point x="317" y="630"/>
      <point x="298" y="659"/>
      <point x="260" y="676" type="curve"/>
      <point x="242" y="672"/>
      <point x="197" y="635"/>
      <point x="195" y="615" type="curve"/>
      <point x="210" y="586"/>
      <point x="236" y="563"/>
    </contour>
    <contour>
      <point x="83" y="552" type="curve"/>
      <point x="119" y="570"/>
      <point x="140" y="594"/>
      <point x="147" y="614" type="curve"/>
      <point x="140" y="630"/>
      <point x="121" y="659"/>
      <point x="83" y="676" type="curve"/>
      <point x="65" y="672"/>
      <point x="20" y="635"/>
      <point x="18" y="615" type="curve"/>
      <point x="33" y="586"/>
      <point x="59" y="563"/>
    </contour>
  </outline>
</glyph>
<glyph name="paragraph" format="1">
  <advance width="692"/>
  <unicode hex="00B6"/>
  <outline>
    <contour>
      <point x="629" y="628" type="line"/>
      <point x="320" y="760"/>
      <point x="4" y="547"/>
      <point x="47" y="422" type="curve" smooth="yes"/>
      <point x="72" y="350"/>
      <point x="129" y="295"/>
      <point x="166" y="262" type="curve" smooth="yes"/>
      <point x="183" y="246"/>
      <point x="228" y="232"/>
      <point x="280" y="233" type="curve"/>
      <point x="280" y="0" type="line"/>
      <point x="410" y="-29" type="line"/>
      <point x="408" y="606" type="line"/>
      <point x="437" y="607"/>
      <point x="469" y="606"/>
      <point x="501" y="604" type="curve"/>
      <point x="501" y="0" type="line"/>
      <point x="631" y="-29" type="line"/>
    </contour>
  </outline>
</glyph>
<glyph name="onesuperior" format="1">
  <advance width="187"/>
  <unicode hex="00B9"/>
  <outline>
    <contour>
      <point x="174" y="693" type="line"/>
      <point x="102" y="713" type="line"/>
      <point x="9" y="627" type="line"/>
      <point x="76" y="599" type="line"/>
      <point x="102" y="625" type="line"/>
      <point x="102" y="393" type="line"/>
      <point x="174" y="379" type="line"/>
    </contour>
  </outline>
</glyph>
<glyph name="Abreve" format="1">
  <advance width="657"/>
  <unicode hex="0102"/>
  <outline>
    <contour>
      <point x="397" y="8" type="move" name="ogonek"/>
    </contour>
    <contour>
      <point x="332" y="743" type="move" name="top"/>
    </contour>
    <component base="A"/>
    <component base="breve" xOffset="133" yOffset="166"/>
  </outline>
</glyph>
<glyph name="emacron" format="1">
  <advance width="558"/>
  <unicode hex="0113"/>
  <outline>
    <contour>
      <point x="279" y="43" type="move" name="ogonek"/>
    </contour>
    <contour>
      <point x="263" y="507" type="move" name="top"/>
    </contour>
    <component base="e"/>
    <component base="macron" xOffset="77"/>
  </outline>
</glyph>
<glyph name="gbreve" format="1">
  <advance width="608"/>
  <unicode hex="011F"/>
  <outline>
    <contour>
      <point x="326" y="507" type="move" name="top"/>
    </contour>
    <component base="g"/>
    <component base="breve" xOffset="94"/>
  </outline>
</glyph>
<glyph name="oe" format="1">
  <advance width="989"/>
  <unicode hex="0153"/>
  <outline>
    <contour>
      <point x="583" y="109" type="curve"/>
      <point x="583" y="109"/>
      <point x="905" y="335"/>
      <point x="907" y="342" type="curve"/>
      <point x="850" y="396"/>
      <point x="717" y="494"/>
      <point x="658" y="494" type="curve" smooth="yes"/>
      <point x="582" y="494"/>
      <point x="519" y="444"/>
      <point x="482" y="376" type="curve"/>
      <point x="440" y="413"/>
      <point x="399" y="438"/>
      <point x="336" y="472" type="curve" smooth="yes"/>
      <point x="156" y="567"/>
      <point x="-69" y="251"/>
      <point x="139" y="73" type="curve" smooth="yes"/>
      <point x="167" y="49"/>
      <point x="189" y="29"/>
      <point x="249" y="-3" type="curve" smooth="yes"/>
      <point x="369" y="-67"/>
      <point x="472" y="-6"/>
      <point x="522" y="87" type="curve"/>
      <point x="569" y="41"/>
      <point x="626" y="5"/>
      <point x="666" y="-10" type="curve" smooth="yes"/>
      <point x="750" y="-42"/>
      <point x="827" y="-2"/>
      <point x="932" y="75" type="curve"/>
      <point x="932" y="75"/>
      <point x="855" y="158"/>
      <point x="854" y="157" type="curve" smooth="yes"/>
      <point x="791" y="105"/>
      <point x="703" y="53"/>
      <point x="644" y="64" type="curve" smooth="yes"/>
      <point x="622" y="68"/>
      <point x="590" y="99"/>
    </contour>
    <contour>
      <point x="394" y="381" type="curve" smooth="yes"/>
      <point x="431" y="357"/>
      <point x="448" y="320"/>
      <point x="451" y="280" type="curve"/>
      <point x="450" y="268"/>
      <point x="449" y="255"/>
      <point x="450" y="243" type="curve"/>
      <point x="435" y="131"/>
      <point x="327" y="13"/>
      <point x="226" y="71" type="curve" smooth="yes"/>
      <point x="65" y="162"/>
      <point x="236" y="483"/>
    </contour>
    <contour>
      <point x="689" y="417" type="curve" smooth="yes"/>
      <point x="717" y="417"/>
      <point x="758" y="395"/>
      <point x="804" y="363" type="curve"/>
      <point x="554" y="203" type="line"/>
      <point x="555" y="210"/>
      <point x="555" y="216"/>
      <point x="555" y="222" type="curve" smooth="yes"/>
      <point x="562" y="315"/>
      <point x="622" y="417"/>
    </contour>
  </outline>
</glyph>
<glyph name="caron" format="1">
  <advance width="350"/>
  <unicode hex="02C7"/>
  <outline>
    <contour>
      <point x="55" y="699" type="line"/>
      <point x="17" y="655" type="line"/>
      <point x="139" y="523" type="line"/>
      <point x="205" y="523" type="line"/>
      <point x="356" y="633" type="line"/>
      <point x="285" y="704" type="line"/>
      <point x="154" y="582" type="line"/>
    </contour>
  </outline>
</glyph>
<glyph name="quotedblleft" format="1">
  <advance width="450"/>
  <unicode hex="201C"/>
  <outline>
    <contour>
      <point x="286" y="809" type="line"/>
      <point x="257" y="776"/>
      <point x="208" y="674"/>
      <point x="200" y="623" type="curve"/>
      <point x="198" y="595"/>
      <point x="243" y="556"/>
      <point x="275" y="541" type="curve"/>
      <point x="296" y="546"/>
      <point x="347" y="588"/>
      <point x="350" y="611" type="curve"/>
      <point x="340" y="631"/>
      <point x="321" y="652"/>
      <point x="305" y="666" type="curve"/>
      <point x="303" y="687"/>
      <point x="315" y="744"/>
      <point x="327" y="782" type="curve"/>
    </contour>
    <contour>
      <point x="92" y="809" type="line"/>
      <point x="63" y="776"/>
      <point x="14" y="674"/>
      <point x="6" y="623" type="curve"/>
      <point x="4" y="595"/>
      <point x="49" y="556"/>
      <point x="81" y="541" type="curve"/>
      <point x="102" y="546"/>
      <point x="153" y="588"/>
      <point x="156" y="611" type="curve"/>
      <point x="146" y="631"/>
      <point x="127" y="652"/>
      <point x="111" y="666" type="curve"/>
      <point x="109" y="687"/>
      <point x="121" y="744"/>
      <point x="133" y="782" type="curve"/>
    </contour>
  </outline>
</glyph>
<glyph name="bullet" format="1">
  <advance width="312"/>
  <unicode hex="2022"/>
  <outline>
    <contour>
      <point x="158" y="175" type="curve"/>
      <point x="221" y="208"/>
      <point x="259" y="251"/>
      <point x="272" y="287" type="curve"/>
      <point x="259" y="315"/>
      <point x="226" y="366"/>
      <point x="156" y="397" type="curve"/>
      <point x="124" y="389"/>
      <point x="45" y="324"/>
      <point x="40" y="289" type="curve"/>
      <point x="66" y="236"/>
      <point x="114" y="196"/>
    </contour>
  </outline>
</glyph>
<glyph name="dvAvagraha" format="1">
  <advance width="546"/>
  <outline>
    <contour>
      <point x="38" y="135" type="line"/>
      <point x="70" y="105"/>
      <point x="188" y="-20"/>
      <point x="308" y="-20" type="curve" smooth="yes"/>
      <point x="425" y="-20"/>
      <point x="516" y="158"/>
      <point x="482" y="201" type="curve" smooth="yes"/>
      <point x="466" y="222"/>
      <point x="212" y="409"/>
      <point x="220" y="462" type="curve" smooth="yes"/>
      <point x="226" y="495"/>
      <point x="261" y="523"/>
      <point x="343" y="523" type="curve" smooth="yes"/>
      <point x="553" y="523" type="line"/>
      <point x="553" y="619" type="line"/>
      <point x="226" y="619" type="line" smooth="yes"/>
      <point x="157" y="619"/>
      <point x="67" y="489"/>
      <point x="128" y="414" type="curve" smooth="yes"/>
      <point x="165" y="369"/>
      <point x="429" y="254"/>
      <point x="350" y="124" type="curve" smooth="yes"/>
      <point x="297" y="37"/>
      <point x="153" y="57"/>
      <point x="58" y="154" type="curve"/>
    </contour>
  </outline>
</glyph>
<glyph name="dvB_TA" format="1">
  <advance width="982"/>
  <outline>
    <contour>
      <point x="477" y="325" type="line"/>
      <point x="452" y="370"/>
      <point x="326" y="449"/>
      <point x="292" y="460" type="curve" smooth="yes"/>
      <point x="224" y="482"/>
      <point x="14" y="348"/>
      <point x="59" y="263" type="curve" smooth="yes"/>
      <point x="96" y="191"/>
      <point x="171" y="71"/>
      <point x="277" y="71" type="curve" smooth="yes"/>
      <point x="379" y="71"/>
      <point x="477" y="242"/>
      <point x="477" y="242" type="curve"/>
      <point x="457" y="307" type="line"/>
    </contour>
    <contour>
      <point x="-3" y="523" type="line"/>
      <point x="599" y="523" type="line"/>
      <point x="599" y="619" type="line"/>
      <point x="-3" y="619" type="line"/>
    </contour>
    <contour>
      <point x="348" y="221" type="curve"/>
      <point x="224" y="340" type="line"/>
      <point x="277" y="368"/>
      <point x="351" y="371"/>
      <point x="432" y="306" type="curve"/>
      <point x="405" y="267"/>
      <point x="376" y="240"/>
    </contour>
    <contour>
      <point x="156" y="201" type="curve" smooth="yes"/>
      <point x="132" y="226"/>
      <point x="150" y="281"/>
      <point x="193" y="319" type="curve"/>
      <point x="315" y="202" type="line"/>
      <point x="239" y="166"/>
      <point x="173" y="182"/>
    </contour>
    <component base="dvTA" xOffset="372"/>
  </outline>
</glyph>
<glyph name="dvEcandra" format="1">
  <advance width="552"/>
  <outline>
    <contour>
      <point x="460" y="827" type="move" name="abvm.bindu"/>
    </contour>
    <component base="dvE" xOffset="-3"/>
    <component base="dvmEcandra" xOffset="352"/>
  </outline>
</glyph>
<glyph name="dvGH_NA" format="1">
  <advance width="708"/>
  <outline>
    <contour>
      <point x="526" y="180" type="line"/>
      <point x="526" y="180"/>
      <point x="124" y="68"/>
      <point x="106" y="60" type="curve"/>
      <point x="54" y="20"/>
      <point x="25" y="-62"/>
      <point x="90" y="-104" type="curve" smooth="yes"/>
      <point x="131" y="-131"/>
      <point x="161" y="-146"/>
      <point x="216" y="-170" type="curve" smooth="yes"/>
      <point x="263" y="-191"/>
      <point x="377" y="-59"/>
      <point x="286" y="14" type="curve"/>
      <point x="552" y="88" type="line"/>
    </contour>
    <contour>
      <point x="233" y="-1" type="curve"/>
      <point x="239" y="-36"/>
      <point x="214" y="-118"/>
      <point x="158" y="-92" type="curve" smooth="yes"/>
      <point x="100" y="-66"/>
      <point x="179" y="-10"/>
    </contour>
    <component base="dvGHA"/>
  </outline>
</glyph>
<glyph name="dvJ_JA" format="1">
  <advance width="1338"/>
  <outline>
    <contour>
      <point x="340" y="305" type="line"/>
      <point x="412" y="305" type="line"/>
      <point x="466" y="225"/>
      <point x="389" y="182"/>
      <point x="351" y="171" type="curve" smooth="yes"/>
      <point x="236" y="138"/>
      <point x="115" y="301"/>
      <point x="53" y="376" type="curve"/>
      <point x="27" y="360" type="line"/>
      <point x="113" y="233"/>
      <point x="206" y="105"/>
      <point x="258" y="69" type="curve" smooth="yes"/>
      <point x="345" y="10"/>
      <point x="580" y="112"/>
      <point x="546" y="216" type="curve" smooth="yes"/>
      <point x="540" y="233"/>
      <point x="510" y="272"/>
      <point x="473" y="305" type="curve"/>
      <point x="646" y="305" type="line"/>
      <point x="567" y="401" type="line"/>
      <point x="231" y="401" type="line"/>
    </contour>
    <contour>
      <point x="-14" y="523" type="line"/>
      <point x="780" y="523" type="line"/>
      <point x="780" y="619" type="line"/>
      <point x="-14" y="619" type="line"/>
    </contour>
    <component base="dvJA" xOffset="526"/>
  </outline>
</glyph>
<glyph name="dvJ_RA" format="1">
  <advance width="831"/>
  <outline>
    <contour>
      <point x="628" y="203" type="line"/>
      <point x="566" y="130"/>
      <point x="484" y="68"/>
      <point x="395" y="2" type="curve"/>
      <point x="479" y="-64" type="line"/>
      <point x="552" y="2"/>
      <point x="638" y="98"/>
      <point x="659" y="154" type="curve"/>
    </contour>
    <component base="dvJA"/>
  </outline>
</glyph>
<glyph name="dvJ_TTA" format="1">
  <advance width="1160"/>
  <outline>
    <contour>
      <point x="829" y="0" type="move" name="blwm.virama"/>
    </contour>
    <contour>
      <point x="987" y="619" type="move" name="abvm.bindu"/>
    </contour>
    <contour>
      <point x="888" y="-10" type="move" name="blwm.u"/>
    </contour>
    <contour>
      <point x="1000" y="619" type="move" name="abvm.e"/>
    </contour>
    <component base="dvJ"/>
    <component base="dvTTA" xOffset="578"/>
  </outline>
</glyph>
<glyph name="dvK_DA" format="1">
  <advance width="1252"/>
  <outline>
    <contour>
      <point x="1256" y="-103" type="move" name="blwm.virama"/>
    </contour>
    <contour>
      <point x="1104" y="619" type="move" name="abvm.bindu"/>
    </contour>
    <contour>
      <point x="1269" y="-117" type="move" name="blwm.u"/>
    </contour>
    <contour>
      <point x="1098" y="619" type="move" name="abvm.e"/>
    </contour>
    <component base="dvDA" xOffset="693"/>
    <component base="dvK" xOffset="12"/>
  </outline>
</glyph>
<glyph name="dvK_NA" format="1">
  <advance width="882"/>
  <outline>
    <contour>
      <point x="491" y="-39" type="move" name="blwm.virama"/>
    </contour>
    <contour>
      <point x="487" y="619" type="move" name="abvm.bindu"/>
    </contour>
    <contour>
      <point x="477" y="-29" type="move" name="blwm.u"/>
    </contour>
    <contour>
      <point x="480" y="619" type="move" name="abvm.e"/>
    </contour>
    <contour>
      <point x="-27" y="523" type="line"/>
      <point x="415" y="523" type="line"/>
      <point x="415" y="386" type="line"/>
      <point x="379" y="409"/>
      <point x="334" y="440"/>
      <point x="308" y="459" type="curve"/>
      <point x="249" y="499"/>
      <point x="30" y="347"/>
      <point x="75" y="262" type="curve" smooth="yes"/>
      <point x="100" y="214"/>
      <point x="141" y="155"/>
      <point x="198" y="122" type="curve"/>
      <point x="138" y="98"/>
      <point x="90" y="79"/>
      <point x="85" y="76" type="curve"/>
      <point x="37" y="32"/>
      <point x="16" y="-53"/>
      <point x="84" y="-88" type="curve" smooth="yes"/>
      <point x="128" y="-111"/>
      <point x="159" y="-123"/>
      <point x="216" y="-142" type="curve" smooth="yes"/>
      <point x="265" y="-158"/>
      <point x="366" y="-16"/>
      <point x="268" y="48" type="curve"/>
      <point x="415" y="104" type="line"/>
      <point x="415" y="0" type="line"/>
      <point x="540" y="-56" type="line"/>
      <point x="540" y="225" type="line"/>
      <point x="559" y="284"/>
      <point x="596" y="319"/>
      <point x="651" y="344" type="curve" smooth="yes"/>
      <point x="745" y="385"/>
      <point x="814" y="325"/>
      <point x="750" y="233" type="curve" smooth="yes"/>
      <point x="724" y="195"/>
      <point x="678" y="171"/>
      <point x="609" y="147" type="curve"/>
      <point x="703" y="61" type="line"/>
      <point x="811" y="98"/>
      <point x="912" y="211"/>
      <point x="865" y="283" type="curve" smooth="yes"/>
      <point x="832" y="332"/>
      <point x="723" y="457"/>
      <point x="682" y="459" type="curve" smooth="yes"/>
      <point x="622" y="461"/>
      <point x="573" y="440"/>
      <point x="540" y="411" type="curve"/>
      <point x="540" y="523" type="line"/>
      <point x="893" y="523" type="line"/>
      <point x="893" y="619" type="line"/>
      <point x="-27" y="619" type="line"/>
    </contour>
    <contour>
      <point x="172" y="200" type="curve"/>
      <point x="121" y="253"/>
      <point x="272" y="422"/>
      <point x="415" y="333" type="curve"/>
      <point x="415" y="276" type="line"/>
      <point x="307" y="152"/>
      <point x="197" y="172"/>
    </contour>
    <contour>
      <point x="217" y="28" type="curve"/>
      <point x="226" y="-6"/>
      <point x="209" y="-90"/>
      <point x="151" y="-70" type="curve" smooth="yes"/>
      <point x="91" y="-49"/>
      <point x="164" y="14"/>
    </contour>
  </outline>
</glyph>
<glyph name="dvLL" format="1">
  <advance width="798"/>
  <outline>
    <contour>
      <point x="-10" y="523" type="line"/>
      <point x="842" y="523" type="line"/>
      <point x="842" y="619" type="line"/>
      <point x="-10" y="619" type="line"/>
    </contour>
    <contour>
      <point x="578" y="434" type="curve"/>
      <point x="563" y="428"/>
      <point x="486" y="353"/>
      <point x="405" y="274" type="curve"/>
      <point x="350" y="317"/>
      <point x="261" y="401"/>
      <point x="212" y="419" type="curve" smooth="yes"/>
      <point x="158" y="439"/>
      <point x="15" y="300"/>
      <point x="25" y="234" type="curve" smooth="yes"/>
      <point x="31" y="193"/>
      <point x="235" y="-21"/>
      <point x="271" y="-9" type="curve"/>
      <point x="285" y="-3"/>
      <point x="365" y="74"/>
      <point x="445" y="154" type="curve"/>
      <point x="506" y="104"/>
      <point x="626" y="0"/>
      <point x="637" y="6" type="curve"/>
      <point x="692" y="-11"/>
      <point x="834" y="125"/>
      <point x="824" y="191" type="curve" smooth="yes"/>
      <point x="818" y="233"/>
      <point x="614" y="446"/>
    </contour>
    <contour>
      <point x="363" y="235" type="curve"/>
      <point x="328" y="200"/>
      <point x="249" y="103"/>
      <point x="215" y="116" type="curve" smooth="yes"/>
      <point x="53" y="176"/>
      <point x="174" y="395"/>
      <point x="301" y="288" type="curve" smooth="yes"/>
      <point x="308" y="282"/>
      <point x="328" y="267"/>
    </contour>
    <contour>
      <point x="548" y="137" type="curve" smooth="yes"/>
      <point x="541" y="143"/>
      <point x="524" y="157"/>
      <point x="484" y="194" type="curve"/>
      <point x="529" y="243"/>
      <point x="585" y="323"/>
      <point x="634" y="309" type="curve"/>
      <point x="799" y="257"/>
      <point x="675" y="30"/>
    </contour>
  </outline>
</glyph>
<glyph name="dvM_BH_RA" format="1">
  <advance width="1065"/>
  <outline>
    <contour>
      <point x="-7" y="523" type="line"/>
      <point x="173" y="523" type="line"/>
      <point x="173" y="273" type="line"/>
      <point x="15" y="280"/>
      <point x="4" y="156"/>
      <point x="35" y="119" type="curve" smooth="yes"/>
      <point x="68" y="80"/>
      <point x="119" y="41"/>
      <point x="141" y="26" type="curve" smooth="yes"/>
      <point x="169" y="7"/>
      <point x="297" y="-9"/>
      <point x="297" y="172" type="curve"/>
      <point x="544" y="172" type="line"/>
      <point x="564" y="271" type="line"/>
      <point x="297" y="270" type="line"/>
      <point x="297" y="523" type="line"/>
      <point x="513" y="523" type="line"/>
      <point x="513" y="619" type="line"/>
      <point x="-7" y="619" type="line"/>
    </contour>
    <contour>
      <point x="876" y="184" type="line"/>
      <point x="814" y="111"/>
      <point x="759" y="62"/>
      <point x="655" y="-3" type="curve"/>
      <point x="739" y="-69" type="line"/>
      <point x="806" y="0"/>
      <point x="883" y="82"/>
      <point x="904" y="138" type="curve"/>
    </contour>
    <contour>
      <point x="172" y="176" type="curve"/>
      <point x="173" y="99"/>
      <point x="126" y="97"/>
      <point x="110" y="115" type="curve" smooth="yes"/>
      <point x="90" y="138"/>
      <point x="106" y="184"/>
    </contour>
    <component base="dvBHA" xOffset="370"/>
  </outline>
</glyph>
<glyph name="dvM_B_YA" format="1">
  <advance width="1415"/>
  <outline>
    <contour>
      <point x="864" y="356" type="line"/>
      <point x="828" y="385"/>
      <point x="738" y="442"/>
      <point x="704" y="460" type="curve" smooth="yes"/>
      <point x="641" y="493"/>
      <point x="426" y="348"/>
      <point x="471" y="263" type="curve" smooth="yes"/>
      <point x="508" y="191"/>
      <point x="583" y="71"/>
      <point x="689" y="71" type="curve"/>
      <point x="791" y="72"/>
      <point x="859" y="214"/>
      <point x="859" y="214" type="curve"/>
      <point x="834" y="306" type="line"/>
      <point x="810" y="267"/>
      <point x="786" y="239"/>
      <point x="762" y="218" type="curve"/>
      <point x="640" y="336" type="line"/>
      <point x="695" y="367"/>
      <point x="769" y="374"/>
      <point x="838" y="314" type="curve"/>
    </contour>
    <contour>
      <point x="409" y="523" type="line"/>
      <point x="1011" y="523" type="line"/>
      <point x="1011" y="619" type="line"/>
      <point x="409" y="619" type="line"/>
    </contour>
    <contour>
      <point x="568" y="201" type="curve" smooth="yes"/>
      <point x="544" y="226"/>
      <point x="565" y="277"/>
      <point x="609" y="315" type="curve"/>
      <point x="733" y="196" type="line"/>
      <point x="655" y="148"/>
      <point x="587" y="180"/>
    </contour>
    <component base="dvYA" xOffset="740"/>
    <component base="dvM" xOffset="5"/>
  </outline>
</glyph>
<glyph name="dvM_P_RA" format="1">
  <advance width="1056"/>
  <outline>
    <contour>
      <point x="-12" y="523" type="line"/>
      <point x="168" y="523" type="line"/>
      <point x="168" y="273" type="line"/>
      <point x="10" y="280"/>
      <point x="-1" y="156"/>
      <point x="30" y="119" type="curve" smooth="yes"/>
      <point x="63" y="80"/>
      <point x="114" y="41"/>
      <point x="136" y="26" type="curve" smooth="yes"/>
      <point x="164" y="7"/>
      <point x="292" y="-9"/>
      <point x="292" y="172" type="curve"/>
      <point x="599" y="172" type="line"/>
      <point x="599" y="271" type="line"/>
      <point x="292" y="270" type="line"/>
      <point x="292" y="523" type="line"/>
      <point x="548" y="523" type="line"/>
      <point x="548" y="619" type="line"/>
      <point x="-12" y="619" type="line"/>
    </contour>
    <contour>
      <point x="941" y="278" type="line"/>
      <point x="879" y="205"/>
      <point x="675" y="76"/>
      <point x="576" y="10" type="curve"/>
      <point x="660" y="-56" type="line"/>
      <point x="762" y="27"/>
      <point x="933" y="183"/>
      <point x="964" y="233" type="curve"/>
    </contour>
    <contour>
      <point x="167" y="176" type="curve"/>
      <point x="168" y="99"/>
      <point x="121" y="97"/>
      <point x="105" y="115" type="curve" smooth="yes"/>
      <point x="85" y="138"/>
      <point x="101" y="184"/>
    </contour>
    <component base="dvPA" xOffset="448"/>
  </outline>
</glyph>
<glyph name="dvM_SHA" format="1">
  <advance width="1114"/>
  <outline>
    <contour>
      <point x="-12" y="523" type="line"/>
      <point x="168" y="523" type="line"/>
      <point x="168" y="273" type="line"/>
      <point x="10" y="280"/>
      <point x="-1" y="156"/>
      <point x="30" y="119" type="curve" smooth="yes"/>
      <point x="63" y="80"/>
      <point x="114" y="41"/>
      <point x="136" y="26" type="curve" smooth="yes"/>
      <point x="164" y="7"/>
      <point x="292" y="-9"/>
      <point x="292" y="172" type="curve"/>
      <point x="428" y="172" type="line"/>
      <point x="445" y="138"/>
      <point x="481" y="105"/>
      <point x="486" y="101" type="curve" smooth="yes"/>
      <point x="514" y="74"/>
      <point x="597" y="86"/>
      <point x="651" y="90" type="curve"/>
      <point x="723" y="31"/>
      <point x="781" y="-20"/>
      <point x="845" y="-79" type="curve"/>
      <point x="884" y="-38" type="line"/>
      <point x="843" y="-11"/>
      <point x="770" y="47"/>
      <point x="698" y="106" type="curve"/>
      <point x="818" y="166"/>
      <point x="878" y="337"/>
      <point x="836" y="454" type="curve" smooth="yes"/>
      <point x="824" y="488"/>
      <point x="740" y="578"/>
      <point x="671" y="620" type="curve" smooth="yes"/>
      <point x="650" y="632"/>
      <point x="618" y="630"/>
      <point x="586" y="619" type="curve"/>
      <point x="-12" y="619" type="line"/>
    </contour>
    <contour>
      <point x="834" y="523" type="line"/>
      <point x="927" y="523" type="line"/>
      <point x="927" y="1" type="line"/>
      <point x="1051" y="-55" type="line"/>
      <point x="1051" y="523" type="line"/>
      <point x="1124" y="523" type="line"/>
      <point x="1124" y="619" type="line"/>
      <point x="795" y="619" type="line"/>
    </contour>
    <contour>
      <point x="491" y="269" type="curve"/>
      <point x="292" y="270" type="line"/>
      <point x="292" y="523" type="line"/>
      <point x="476" y="523" type="line"/>
      <point x="472" y="513"/>
      <point x="470" y="503"/>
      <point x="470" y="493" type="curve" smooth="yes"/>
      <point x="470" y="434"/>
      <point x="642" y="298"/>
      <point x="717" y="275" type="curve"/>
      <point x="693" y="236"/>
      <point x="660" y="205"/>
      <point x="608" y="180" type="curve"/>
      <point x="553" y="224"/>
      <point x="508" y="260"/>
    </contour>
    <contour>
      <point x="729" y="309" type="curve"/>
      <point x="697" y="319"/>
      <point x="627" y="368"/>
      <point x="591" y="406" type="curve" smooth="yes"/>
      <point x="509" y="494"/>
      <point x="753" y="650"/>
      <point x="753" y="439" type="curve" smooth="yes"/>
      <point x="753" y="413"/>
      <point x="750" y="353"/>
    </contour>
    <contour>
      <point x="167" y="176" type="curve"/>
      <point x="168" y="99"/>
      <point x="121" y="97"/>
      <point x="105" y="115" type="curve" smooth="yes"/>
      <point x="85" y="138"/>
      <point x="101" y="184"/>
    </contour>
  </outline>
</glyph>
<glyph name="dvNGA" format="1">
  <advance width="764"/>
  <outline>
    <contour>
      <point x="284" y="-13" type="move" name="blwm.virama"/>
    </contour>
    <contour>
      <point x="405" y="619" type="move" name="abvm.bindu"/>
    </contour>
    <contour>
      <point x="309" y="-19" type="move" name="blwm.u"/>
    </contour>
    <contour>
      <point x="393" y="619" type="move" name="abvm.e"/>
    </contour>
    <contour>
      <point x="-4" y="523" type="line"/>
      <point x="337" y="523" type="line"/>
      <point x="337" y="477" type="line"/>
      <point x="154" y="466" type="line"/>
      <point x="100" y="462"/>
      <point x="41" y="338"/>
      <point x="82" y="293" type="curve" smooth="yes"/>
      <point x="120" y="253"/>
      <point x="178" y="206"/>
      <point x="227" y="166" type="curve" smooth="yes"/>
      <point x="281" y="123"/>
      <point x="438" y="265"/>
      <point x="486" y="217" type="curve" smooth="yes"/>
      <point x="539" y="165"/>
      <point x="431" y="67"/>
      <point x="302" y="67" type="curve" smooth="yes"/>
      <point x="174" y="67"/>
      <point x="60" y="195"/>
      <point x="33" y="227" type="curve"/>
      <point x="13" y="208" type="line"/>
      <point x="34" y="175"/>
      <point x="164" y="-20"/>
      <point x="339" y="-20" type="curve" smooth="yes"/>
      <point x="541" y="-20"/>
      <point x="606" y="129"/>
      <point x="576" y="175" type="curve" smooth="yes"/>
      <point x="547" y="220"/>
      <point x="502" y="279"/>
      <point x="454" y="319" type="curve" smooth="yes"/>
      <point x="440" y="331"/>
      <point x="282" y="278"/>
      <point x="236" y="266" type="curve" smooth="yes"/>
      <point x="150" y="243"/>
      <point x="182" y="389"/>
      <point x="228" y="389" type="curve" smooth="yes"/>
      <point x="449" y="389" type="line"/>
      <point x="449" y="523" type="line"/>
      <point x="778" y="523" type="line"/>
      <point x="778" y="619" type="line"/>
      <point x="-4" y="619" type="line"/>
    </contour>
    <contour>
      <point x="639" y="268" type="curve"/>
      <point x="680" y="289"/>
      <point x="704" y="317"/>
      <point x="713" y="340" type="curve"/>
      <point x="704" y="358"/>
      <point x="683" y="391"/>
      <point x="638" y="411" type="curve"/>
      <point x="617" y="406"/>
      <point x="566" y="364"/>
      <point x="563" y="341" type="curve"/>
      <point x="580" y="307"/>
      <point x="611" y="281"/>
    </contour>
  </outline>
</glyph>
<glyph name="dvNN_TTHA" format="1">
  <advance width="1131"/>
  <outline>
    <contour>
      <point x="841" y="-17" type="move" name="blwm.virama"/>
    </contour>
    <contour>
      <point x="947" y="619" type="move" name="abvm.bindu"/>
    </contour>
    <contour>
      <point x="844" y="-18" type="move" name="blwm.u"/>
    </contour>
    <contour>
      <point x="936" y="618" type="move" name="abvm.e"/>
    </contour>
    <component base="dvNN"/>
    <component base="dvTTHA" xOffset="525"/>
  </outline>
</glyph>
<glyph name="dvN_PHA" format="1">
  <advance width="1302"/>
  <outline>
    <contour>
      <point x="890" y="-16" type="move" name="blwm.virama"/>
    </contour>
    <contour>
      <point x="902" y="619" type="move" name="abvm.bindu"/>
    </contour>
    <contour>
      <point x="910" y="-29" type="move" name="blwm.u"/>
    </contour>
    <contour>
      <point x="912" y="619" type="move" name="abvm.e"/>
    </contour>
    <component base="dvN" xOffset="-4"/>
    <component base="dvPHA" xOffset="430"/>
  </outline>
</glyph>
<glyph name="dvN_SA" format="1">
  <advance width="1205"/>
  <outline>
    <contour>
      <point x="599" y="375" type="line"/>
      <point x="112" y="376"/>
      <point x="151" y="379"/>
      <point x="137" y="375" type="curve" smooth="yes"/>
      <point x="70" y="354"/>
      <point x="52" y="245"/>
      <point x="112" y="189" type="curve" smooth="yes"/>
      <point x="154" y="150"/>
      <point x="190" y="122"/>
      <point x="238" y="81" type="curve" smooth="yes"/>
      <point x="283" y="43"/>
      <point x="454" y="139"/>
      <point x="352" y="281" type="curve"/>
      <point x="599" y="278" type="line"/>
    </contour>
    <contour>
      <point x="-8" y="523" type="line"/>
      <point x="679" y="523" type="line"/>
      <point x="679" y="619" type="line"/>
      <point x="-8" y="619" type="line"/>
    </contour>
    <contour>
      <point x="277" y="282" type="curve"/>
      <point x="295" y="282" type="line"/>
      <point x="298" y="18"/>
      <point x="14" y="285"/>
    </contour>
    <component base="dvSA" xOffset="489"/>
  </outline>
</glyph>
<glyph name="dvPH_NA" format="1">
  <advance width="882"/>
  <outline>
    <contour>
      <point x="484" y="-29" type="move" name="blwm.virama"/>
    </contour>
    <contour>
      <point x="499" y="619" type="move" name="abvm.bindu"/>
    </contour>
    <contour>
      <point x="489" y="-33" type="move" name="blwm.u"/>
    </contour>
    <contour>
      <point x="488" y="619" type="move" name="abvm.e"/>
    </contour>
    <contour>
      <point x="490" y="222" type="line"/>
      <point x="490" y="222"/>
      <point x="97" y="109"/>
      <point x="79" y="101" type="curve"/>
      <point x="27" y="62"/>
      <point x="-3" y="-21"/>
      <point x="62" y="-62" type="curve" smooth="yes"/>
      <point x="103" y="-89"/>
      <point x="133" y="-105"/>
      <point x="188" y="-129" type="curve" smooth="yes"/>
      <point x="235" y="-150"/>
      <point x="349" y="-19"/>
      <point x="258" y="55" type="curve"/>
      <point x="516" y="130" type="line"/>
    </contour>
    <contour>
      <point x="205" y="40" type="curve"/>
      <point x="217" y="-34"/>
      <point x="153" y="-78"/>
      <point x="118" y="-41" type="curve" smooth="yes"/>
      <point x="86" y="-6"/>
      <point x="151" y="31"/>
    </contour>
    <component base="dvPHA"/>
  </outline>
</glyph>
<glyph name="dvPH_TTA" format="1">
  <advance width="1242"/>
  <outline>
    <contour>
      <point x="959" y="0" type="move" name="blwm.virama"/>
    </contour>
    <contour>
      <point x="1062" y="619" type="move" name="abvm.bindu"/>
    </contour>
    <contour>
      <point x="1018" y="-10" type="move" name="blwm.u"/>
    </contour>
    <contour>
      <point x="1079" y="619" type="move" name="abvm.e"/>
    </contour>
    <component base="dvTTA" xOffset="648"/>
    <component base="dvPH" xOffset="-13"/>
  </outline>
</glyph>
<glyph name="dvPHx_PHxA" format="1">
  <advance width="1540"/>
  <outline>
    <contour>
      <point x="1167" y="-29" type="move" name="blwm.virama"/>
    </contour>
    <contour>
      <point x="1165" y="619" type="move" name="abvm.bindu"/>
    </contour>
    <contour>
      <point x="1142" y="-24" type="move" name="blwm.u"/>
    </contour>
    <contour>
      <point x="1152" y="619" type="move" name="abvm.e"/>
    </contour>
    <component base="dvPHA" xOffset="671"/>
    <component base="dvNukta" xOffset="556" yOffset="75"/>
    <component base="dvPH" xOffset="-10"/>
    <component base="dvNukta" xOffset="1228" yOffset="75"/>
  </outline>
</glyph>
<glyph name="dvP_TA" format="1">
  <advance width="967"/>
  <outline>
    <contour>
      <point x="-13" y="522" type="line"/>
      <point x="50" y="522" type="line"/>
      <point x="50" y="464"/>
      <point x="48" y="256"/>
      <point x="56" y="248" type="curve" smooth="yes"/>
      <point x="120" y="180"/>
      <point x="211" y="71"/>
      <point x="287" y="71" type="curve" smooth="yes"/>
      <point x="389" y="71"/>
      <point x="498" y="240"/>
      <point x="498" y="240" type="curve"/>
      <point x="497" y="240"/>
      <point x="420" y="325"/>
      <point x="420" y="325" type="curve"/>
      <point x="370" y="237"/>
      <point x="237" y="142"/>
      <point x="175" y="208" type="curve"/>
      <point x="173" y="522" type="line"/>
      <point x="606" y="522" type="line"/>
      <point x="606" y="619" type="line"/>
      <point x="-13" y="619" type="line"/>
    </contour>
    <component base="dvTA" xOffset="356"/>
  </outline>
</glyph>
<glyph name="dvRA_mU" format="1">
  <advance width="658"/>
  <outline>
    <contour>
      <point x="286" y="618" type="move" name="abvm.bindu"/>
    </contour>
    <contour>
      <point x="271" y="620" type="move" name="abvm.e"/>
    </contour>
    <contour>
      <point x="-9" y="523" type="line"/>
      <point x="246" y="523" type="line"/>
      <point x="279" y="432"/>
      <point x="291" y="309"/>
      <point x="179" y="272" type="curve"/>
      <point x="166" y="305"/>
      <point x="167" y="337"/>
      <point x="155" y="350" type="curve"/>
      <point x="135" y="369"/>
      <point x="93" y="398"/>
      <point x="79" y="381" type="curve" smooth="yes"/>
      <point x="61" y="360"/>
      <point x="45" y="324"/>
      <point x="33" y="290" type="curve"/>
      <point x="93" y="122"/>
      <point x="265" y="15"/>
      <point x="388" y="-56" type="curve"/>
      <point x="416" y="-20" type="line"/>
      <point x="369" y="3"/>
      <point x="272" y="60"/>
      <point x="209" y="152" type="curve"/>
      <point x="275" y="177"/>
      <point x="319" y="216"/>
      <point x="343" y="262" type="curve"/>
      <point x="513" y="425"/>
      <point x="658" y="228"/>
      <point x="410" y="131" type="curve"/>
      <point x="484" y="53" type="line"/>
      <point x="587" y="99"/>
      <point x="669" y="187"/>
      <point x="622" y="259" type="curve" smooth="yes"/>
      <point x="589" y="308"/>
      <point x="491" y="417"/>
      <point x="450" y="419" type="curve" smooth="yes"/>
      <point x="417" y="420"/>
      <point x="388" y="414"/>
      <point x="363" y="404" type="curve"/>
      <point x="356" y="444"/>
      <point x="339" y="484"/>
      <point x="314" y="523" type="curve"/>
      <point x="666" y="523" type="line"/>
      <point x="666" y="619" type="line"/>
      <point x="-9" y="619" type="line"/>
    </contour>
  </outline>
</glyph>
<glyph name="dvReph_Anusvara.amI" format="1">
  <advance width="0"/>
  <outline>
    <contour>
      <point x="-71" y="615" type="move" name="_abvm.i"/>
    </contour>
    <component base="dvReph.amI"/>
    <component base="dvAnusvara" xScale="0.771000027657" yScale="0.771000027657" xOffset="-85" yOffset="131"/>
  </outline>
</glyph>
<glyph name="dvRxA" format="1">
  <advance width="448"/>
  <outline>
    <contour>
      <point x="329" y="-20" type="move" name="blwm.virama"/>
    </contour>
    <contour>
      <point x="287" y="620" type="move" name="abvm.bindu"/>
    </contour>
    <contour>
      <point x="344" y="-29" type="move" name="blwm.u"/>
    </contour>
    <contour>
      <point x="297" y="619" type="move" name="abvm.e"/>
    </contour>
    <component base="dvRA" xOffset="5"/>
    <component base="dvNukta" xOffset="457" yOffset="130"/>
  </outline>
</glyph>
<glyph name="dvSH_TTA" format="1">
  <advance width="1051"/>
  <outline>
    <contour>
      <point x="825" y="0" type="move" name="blwm.virama"/>
    </contour>
    <contour>
      <point x="885" y="619" type="move" name="abvm.bindu"/>
    </contour>
    <contour>
      <point x="884" y="-10" type="move" name="blwm.u"/>
    </contour>
    <contour>
      <point x="869" y="619" type="move" name="abvm.e"/>
    </contour>
    <contour>
      <point x="418" y="523" type="line"/>
      <point x="666" y="523" type="line"/>
      <point x="666" y="619" type="line"/>
      <point x="379" y="619" type="line"/>
    </contour>
    <component base="dvSH"/>
    <component base="dvTTA" xOffset="460"/>
  </outline>
</glyph>
<glyph name="dvSH_YA" format="1">
  <advance width="1131"/>
  <outline>
    <contour>
      <point x="444" y="523" type="line"/>
      <point x="692" y="523" type="line"/>
      <point x="692" y="619" type="line"/>
      <point x="405" y="619" type="line"/>
    </contour>
    <component base="dvSH" xOffset="16"/>
    <component base="dvYA" xOffset="472"/>
  </outline>
</glyph>
<glyph name="dvS_TH_YA" format="1">
  <advance width="1491"/>
  <outline>
    <contour>
      <point x="-5" y="523" type="line"/>
      <point x="235" y="523" type="line"/>
      <point x="268" y="432"/>
      <point x="279" y="306"/>
      <point x="167" y="269" type="curve"/>
      <point x="156" y="306"/>
      <point x="156" y="338"/>
      <point x="144" y="351" type="curve"/>
      <point x="124" y="370"/>
      <point x="82" y="398"/>
      <point x="68" y="382" type="curve" smooth="yes"/>
      <point x="50" y="361"/>
      <point x="34" y="324"/>
      <point x="22" y="290" type="curve"/>
      <point x="82" y="122"/>
      <point x="256" y="20"/>
      <point x="377" y="-56" type="curve"/>
      <point x="405" y="-19" type="line"/>
      <point x="339" y="26"/>
      <point x="226" y="116"/>
      <point x="200" y="166" type="curve"/>
      <point x="247" y="181"/>
      <point x="283" y="205"/>
      <point x="309" y="234" type="curve"/>
      <point x="341" y="212"/>
      <point x="406" y="171"/>
      <point x="438" y="171" type="curve" smooth="yes"/>
      <point x="516" y="171"/>
      <point x="628" y="251"/>
      <point x="628" y="251" type="curve"/>
      <point x="556" y="377"/>
      <point x="576" y="339"/>
      <point x="493" y="283" type="curve" smooth="yes"/>
      <point x="438" y="246"/>
      <point x="373" y="251"/>
      <point x="333" y="268" type="curve"/>
      <point x="373" y="341"/>
      <point x="360" y="436"/>
      <point x="303" y="523" type="curve"/>
      <point x="583" y="523" type="line"/>
      <point x="583" y="619" type="line"/>
      <point x="-5" y="619" type="line"/>
    </contour>
    <component base="dvTH_YA" xOffset="450"/>
  </outline>
</glyph>
<glyph name="dvTTH_TTHA" format="1">
  <advance width="605"/>
  <outline>
    <contour>
      <point x="308" y="-320" type="move" name="blwm.virama"/>
    </contour>
    <contour>
      <point x="419" y="619" type="move" name="abvm.bindu"/>
    </contour>
    <contour>
      <point x="308" y="-339" type="move" name="blwm.u"/>
    </contour>
    <contour>
      <point x="404" y="619" type="move" name="abvm.e"/>
    </contour>
    <contour>
      <point x="-8" y="523" type="line"/>
      <point x="349" y="523" type="line"/>
      <point x="349" y="469" type="line"/>
      <point x="192" y="457" type="line"/>
      <point x="115" y="449"/>
      <point x="46" y="305"/>
      <point x="96" y="231" type="curve" smooth="yes"/>
      <point x="138" y="169"/>
      <point x="165" y="127"/>
      <point x="228" y="74" type="curve" smooth="yes"/>
      <point x="262" y="45"/>
      <point x="305" y="35"/>
      <point x="349" y="40" type="curve"/>
      <point x="349" y="1" type="line"/>
      <point x="192" y="-11" type="line"/>
      <point x="115" y="-19"/>
      <point x="46" y="-163"/>
      <point x="96" y="-237" type="curve" smooth="yes"/>
      <point x="138" y="-299"/>
      <point x="165" y="-341"/>
      <point x="228" y="-394" type="curve" smooth="yes"/>
      <point x="396" y="-534"/>
      <point x="758" y="-222"/>
      <point x="460" y="-48" type="curve"/>
      <point x="460" y="79" type="line"/>
      <point x="577" y="153"/>
      <point x="643" y="312"/>
      <point x="460" y="419" type="curve"/>
      <point x="460" y="523" type="line"/>
      <point x="610" y="523" type="line"/>
      <point x="610" y="619" type="line"/>
      <point x="-8" y="619" type="line"/>
    </contour>
    <contour>
      <point x="308" y="-335" type="curve" smooth="yes"/>
      <point x="119" y="-332"/>
      <point x="189" y="-71"/>
      <point x="294" y="-73" type="curve" smooth="yes"/>
      <point x="456" y="-76" type="line"/>
      <point x="558" y="-220"/>
      <point x="424" y="-337"/>
    </contour>
    <contour>
      <point x="308" y="133" type="curve" smooth="yes"/>
      <point x="119" y="136"/>
      <point x="189" y="397"/>
      <point x="294" y="395" type="curve" smooth="yes"/>
      <point x="456" y="392" type="line"/>
      <point x="558" y="248"/>
      <point x="424" y="131"/>
    </contour>
  </outline>
</glyph>
<glyph name="dvT_T_YA" format="1">
  <advance width="1107"/>
  <outline>
    <contour>
      <point x="150" y="322" type="line"/>
      <point x="233" y="322" type="line"/>
      <point x="200" y="273"/>
      <point x="184" y="216"/>
      <point x="188" y="195" type="curve"/>
      <point x="197" y="133"/>
      <point x="315" y="31"/>
      <point x="414" y="-56" type="curve"/>
      <point x="449" y="-27" type="line"/>
      <point x="400" y="20"/>
      <point x="390" y="32"/>
      <point x="363" y="62" type="curve" smooth="yes"/>
      <point x="256" y="182"/>
      <point x="310" y="313"/>
      <point x="432" y="310" type="curve" smooth="yes"/>
      <point x="630" y="306" type="line"/>
      <point x="630" y="322" type="line"/>
      <point x="650" y="322" type="line"/>
      <point x="630" y="352" type="line"/>
      <point x="630" y="403" type="line"/>
      <point x="597" y="403" type="line"/>
      <point x="596" y="405" type="line"/>
      <point x="411" y="404" type="line"/>
      <point x="361" y="405" type="line" smooth="yes"/>
      <point x="357" y="405"/>
      <point x="353" y="405"/>
      <point x="349" y="404" type="curve"/>
      <point x="57" y="404" type="line"/>
    </contour>
    <contour>
      <point x="-4" y="523" type="line"/>
      <point x="462" y="523" type="line"/>
      <point x="462" y="619" type="line"/>
      <point x="-4" y="619" type="line"/>
    </contour>
    <component base="dvYA" xOffset="438"/>
  </outline>
</glyph>
<glyph name="dvmI.a29" format="1">
  <advance width="271"/>
  <outline>
    <contour>
      <point x="1852" y="587" type="move" name="abvm.i"/>
    </contour>
    <contour>
      <point x="-3" y="523" type="line"/>
      <point x="73" y="523" type="line"/>
      <point x="73" y="-1" type="line"/>
      <point x="197" y="-57" type="line"/>
      <point x="197" y="523" type="line"/>
      <point x="274" y="523" type="line"/>
      <point x="274" y="619" type="line"/>
      <point x="191" y="619" type="line"/>
      <point x="158" y="773"/>
      <point x="862" y="779"/>
      <point x="1021" y="776" type="curve" smooth="yes"/>
      <point x="1183" y="773"/>
      <point x="1374" y="729"/>
      <point x="1799" y="601" type="curve"/>
      <point x="1903" y="600" type="line"/>
      <point x="1847" y="625"/>
      <point x="1133" y="858"/>
      <point x="1061" y="870" type="curve" smooth="yes"/>
      <point x="1024" y="876"/>
      <point x="107" y="810"/>
      <point x="91" y="767" type="curve" smooth="yes"/>
      <point x="77" y="728"/>
      <point x="71" y="676"/>
      <point x="78" y="619" type="curve"/>
      <point x="-3" y="619" type="line"/>
    </contour>
  </outline>
</glyph>
<glyph name="dvmI.a31" format="1">
  <advance width="271"/>
  <outline>
    <contour>
      <point x="1924" y="587" type="move" name="abvm.i"/>
    </contour>
    <contour>
      <point x="-3" y="523" type="line"/>
      <point x="73" y="523" type="line"/>
      <point x="73" y="-1" type="line"/>
      <point x="197" y="-57" type="line"/>
      <point x="197" y="523" type="line"/>
      <point x="274" y="523" type="line"/>
      <point x="274" y="619" type="line"/>
      <point x="188" y="619" type="line"/>
      <point x="140" y="751"/>
      <point x="724" y="757"/>
      <point x="920" y="776" type="curve"/>
      <point x="1298" y="811"/>
      <point x="1389" y="744"/>
      <point x="1859" y="601" type="curve"/>
      <point x="1963" y="600" type="line"/>
      <point x="1907" y="625"/>
      <point x="1260" y="861"/>
      <point x="1188" y="873" type="curve" smooth="yes"/>
      <point x="1151" y="879"/>
      <point x="104" y="822"/>
      <point x="88" y="779" type="curve" smooth="yes"/>
      <point x="74" y="740"/>
      <point x="70" y="678"/>
      <point x="78" y="619" type="curve"/>
      <point x="-3" y="619" type="line"/>
    </contour>
  </outline>
</glyph>
<glyph name="dvmUU" format="1">
  <advance width="0"/>
  <outline>
    <contour>
      <point x="-163" y="16" type="move" name="_blwm.u"/>
    </contour>
    <contour>
      <point x="-184" y="-316" type="curve" smooth="yes"/>
      <point x="-161" y="-322"/>
      <point x="-78" y="-296"/>
      <point x="-23" y="-263" type="curve"/>
      <point x="-85" y="-189" type="line"/>
      <point x="-135" y="-213" type="line" smooth="yes"/>
      <point x="-216" y="-252"/>
      <point x="-291" y="-149"/>
      <point x="-216" y="-89" type="curve" smooth="yes"/>
      <point x="-125" y="-16"/>
      <point x="-31" y="-111"/>
      <point x="155" y="-252" type="curve"/>
      <point x="173" y="-231" type="line"/>
      <point x="64" y="-123"/>
      <point x="-93" y="13"/>
      <point x="-139" y="21" type="curve" smooth="yes"/>
      <point x="-261" y="41"/>
      <point x="-416" y="-101"/>
      <point x="-330" y="-192" type="curve" smooth="yes"/>
      <point x="-283" y="-241"/>
      <point x="-212" y="-310"/>
    </contour>
  </outline>
</glyph>
<glyph name="turkishlira" format="1">
  <advance width="501"/>
  <outline>
    <contour>
      <point x="62" y="408" type="line"/>
      <point x="114" y="408" type="line"/>
      <point x="114" y="345" type="line"/>
      <point x="32" y="345" type="line"/>
      <point x="62" y="275" type="line"/>
      <point x="114" y="275" type="line"/>
      <point x="114" y="122" type="line" smooth="yes"/>
      <point x="114" y="61"/>
      <point x="264" y="-53"/>
      <point x="328" y="-17" type="curve" smooth="yes"/>
      <point x="357" y="-1"/>
      <point x="454" y="82"/>
      <point x="481" y="134" type="curve"/>
      <point x="454" y="165" type="line"/>
      <point x="233" y="-26"/>
      <point x="227" y="145"/>
      <point x="227" y="275" type="curve"/>
      <point x="389" y="275" type="line"/>
      <point x="359" y="345" type="line"/>
      <point x="227" y="345" type="line"/>
      <point x="227" y="408" type="line"/>
      <point x="389" y="408" type="line"/>
      <point x="359" y="478" type="line"/>
      <point x="227" y="478" type="line"/>
      <point x="227" y="558" type="line"/>
      <point x="114" y="586" type="line"/>
      <point x="114" y="478" type="line"/>
      <point x="32" y="478" type="line"/>
    </contour>
  </outline>
</glyph>
